<svg width="91" height="16" viewBox="0 0 91 16" fill="none" xmlns="http://www.w3.org/2000/svg">
<path d="M7.42969 15.8438H5.55469V6.96094H1.78125V15.8438H0V0H1.78125V5.27344H7.42969V15.8438ZM13.1484 11.5312V14.1562H18.7031V15.8438H11.2734V5.27344H18.6562V11.5312H13.1484ZM13.1484 9.79688H16.9453V7.00781H13.1484V9.79688ZM28.1016 9.60938V6.96094H22.5469V5.27344H29.9766V15.8438H22.5938V9.60938H28.1016ZM28.1016 11.3203H24.3281V14.1094H28.1016V11.3203ZM39.4922 5.27344V0H41.25V15.8438H33.8203V5.27344H39.4922ZM39.4922 14.1094V6.96094H35.6953V14.0859L39.4922 14.1094ZM52.5234 15.8438H50.6484V6.96094H46.875V15.8438H45.0938V5.27344H52.5234V15.8438ZM56.3672 15.8438V5.27344H63.7969V15.8438H56.3672ZM62.0391 7.00781L58.2422 7.03125V14.1562H62.0391V7.00781ZM74.1094 15.8438H69.7969V6.96094H67.6406V5.27344H69.7969V2.15625H71.5781V5.27344H74.1094V6.96094H71.5781V14.1562H74.1094V15.8438ZM79.8281 11.5312V14.1562H85.3828V15.8438H77.9531V5.27344H85.3359V11.5312H79.8281ZM79.8281 9.79688H83.625V7.00781H79.8281V9.79688ZM89.2266 12.9609H91.0078V15.8438H89.2266V12.9609Z" fill="#222222"/>
<path d="M7.42969 15.8438H5.55469V6.96094H1.78125V15.8438H0V0H1.78125V5.27344H7.42969V15.8438ZM13.1484 11.5312V14.1562H18.7031V15.8438H11.2734V5.27344H18.6562V11.5312H13.1484ZM13.1484 9.79688H16.9453V7.00781H13.1484V9.79688ZM28.1016 9.60938V6.96094H22.5469V5.27344H29.9766V15.8438H22.5938V9.60938H28.1016ZM28.1016 11.3203H24.3281V14.1094H28.1016V11.3203ZM39.4922 5.27344V0H41.25V15.8438H33.8203V5.27344H39.4922ZM39.4922 14.1094V6.96094H35.6953V14.0859L39.4922 14.1094ZM52.5234 15.8438H50.6484V6.96094H46.875V15.8438H45.0938V5.27344H52.5234V15.8438ZM56.3672 15.8438V5.27344H63.7969V15.8438H56.3672ZM62.0391 7.00781L58.2422 7.03125V14.1562H62.0391V7.00781ZM74.1094 15.8438H69.7969V6.96094H67.6406V5.27344H69.7969V2.15625H71.5781V5.27344H74.1094V6.96094H71.5781V14.1562H74.1094V15.8438ZM79.8281 11.5312V14.1562H85.3828V15.8438H77.9531V5.27344H85.3359V11.5312H79.8281ZM79.8281 9.79688H83.625V7.00781H79.8281V9.79688ZM89.2266 12.9609H91.0078V15.8438H89.2266V12.9609Z" fill="url(#paint0_linear_4925_11)" fill-opacity="0.2"/>
<defs>
<linearGradient id="paint0_linear_4925_11" x1="45.5781" y1="-4.15625" x2="45.5781" y2="22.8438" gradientUnits="userSpaceOnUse">
<stop stop-color="white"/>
<stop offset="1" stop-color="white" stop-opacity="0"/>
</linearGradient>
</defs>
</svg>
